<svg width="24" height="24" viewBox="0 0 24 24" fill="none" xmlns="http://www.w3.org/2000/svg">
<g id="Group">
<path id="Path" d="M7.03797 4.5C6.05222 5.15156 5.20443 5.99086 4.54297 6.97" stroke="#A1A1A1" stroke-width="1.5" stroke-linecap="round" stroke-linejoin="round"/>
<path id="Path_2" d="M3.1859 10.209C2.9558 11.367 2.9558 12.559 3.1859 13.717" stroke="#A1A1A1" stroke-width="1.5" stroke-linecap="round" stroke-linejoin="round"/>
<path id="Path_3" d="M4.5 16.962C5.15156 17.9477 5.99086 18.7955 6.97 19.457" stroke="#A1A1A1" stroke-width="1.5" stroke-linecap="round" stroke-linejoin="round"/>
<path id="Path_4" d="M10.209 20.814C11.3644 21.0431 12.5536 21.0431 13.709 20.814" stroke="#A1A1A1" stroke-width="1.5" stroke-linecap="round" stroke-linejoin="round"/>
<path id="Path_5" d="M16.9619 19.5C17.9477 18.8485 18.7955 18.0092 19.4569 17.03" stroke="#A1A1A1" stroke-width="1.5" stroke-linecap="round" stroke-linejoin="round"/>
<path id="Path_6" d="M20.8141 13.791C21.0442 12.633 21.0442 11.441 20.8141 10.283" stroke="#A1A1A1" stroke-width="1.5" stroke-linecap="round" stroke-linejoin="round"/>
<path id="Path_7" d="M19.5003 7.03803C18.8487 6.05228 18.0094 5.20449 17.0303 4.54303" stroke="#A1A1A1" stroke-width="1.5" stroke-linecap="round" stroke-linejoin="round"/>
<path id="Path_8" d="M13.7912 3.18603C12.6345 2.94932 11.4425 2.94253 10.2832 3.16603" stroke="#A1A1A1" stroke-width="1.5" stroke-linecap="round" stroke-linejoin="round"/>
<path id="Path_9" d="M12 8L10 12H14L12 16" stroke="#A1A1A1" stroke-width="1.5" stroke-linecap="round" stroke-linejoin="round"/>
<path id="Path_10" d="M12 21C16.9706 21 21 16.9706 21 12C21 7.02944 16.9706 3 12 3" stroke="#A1A1A1" stroke-width="1.5" stroke-linecap="round" stroke-linejoin="round"/>
</g>
</svg>
