<svg width="24" height="24" viewBox="0 0 24 24" fill="none" xmlns="http://www.w3.org/2000/svg">
<g id="Group">
<path id="Path" d="M18 7L17 8" stroke="#407BBF" stroke-width="1.5" stroke-linecap="round" stroke-linejoin="round"/>
<path id="Path_2" d="M14 11H15C16.1046 11 17 11.8954 17 13V16C17 16.8284 17.6716 17.5 18.5 17.5C19.3284 17.5 20 16.8284 20 16V9L17 6" stroke="#407BBF" stroke-width="1.5" stroke-linecap="round" stroke-linejoin="round"/>
<path id="Path_3" d="M4 20V6C4 4.89543 4.89543 4 6 4H12C13.1046 4 14 4.89543 14 6V20" stroke="#407BBF" stroke-width="1.5" stroke-linecap="round" stroke-linejoin="round"/>
<path id="Path_4" d="M9 11.5L7.5 14H10.5L9 16.5" stroke="#407BBF" stroke-width="1.5" stroke-linecap="round" stroke-linejoin="round"/>
<path id="Path_5" d="M3 20H15" stroke="#407BBF" stroke-width="1.5" stroke-linecap="round" stroke-linejoin="round"/>
<path id="Path_6" d="M4 8H14" stroke="#407BBF" stroke-width="1.5" stroke-linecap="round" stroke-linejoin="round"/>
</g>
</svg>
