<svg width="81" height="80" viewBox="0 0 81 80" fill="none" xmlns="http://www.w3.org/2000/svg">
<rect x="0.5" width="80" height="80" rx="40" fill="#EB5757"/>
<path d="M56.1264 34.5986C56.1264 34.5986 54.968 48.9666 54.296 55.0189C53.976 57.9096 52.1904 59.6034 49.2656 59.6568C43.6998 59.757 38.1275 59.7634 32.5638 59.6461C29.7499 59.5885 27.9942 57.8733 27.6806 55.0338C27.0043 48.9282 25.8523 34.5986 25.8523 34.5986" stroke="#FAFAFA" stroke-width="2" stroke-linecap="round" stroke-linejoin="round"/>
<path d="M59.0775 27.7112H22.9004" stroke="#FAFAFA" stroke-width="2" stroke-linecap="round" stroke-linejoin="round"/>
<path d="M52.1066 27.7113C50.4319 27.7113 48.9898 26.5273 48.6612 24.8867L48.1428 22.2926C47.8228 21.0958 46.7391 20.2681 45.5039 20.2681H36.4735C35.2383 20.2681 34.1546 21.0958 33.8346 22.2926L33.3162 24.8867C32.9876 26.5273 31.5455 27.7113 29.8708 27.7113" stroke="#FAFAFA" stroke-width="2" stroke-linecap="round" stroke-linejoin="round"/>
</svg>
