<svg width="20" height="22" viewBox="0 0 20 22" fill="none" xmlns="http://www.w3.org/2000/svg">
<g id="Group">
<path id="Vector" d="M3 7.25C3.22 7.25 3.435 7.15 3.575 6.98C4.085 6.37 5.75 4.275 5.75 3C5.75 1.485 4.515 0.25 3 0.25C1.485 0.25 0.25 1.485 0.25 3C0.25 4.275 1.915 6.37 2.425 6.98C2.565 7.15 2.78 7.25 3 7.25ZM3 1.75C3.69 1.75 4.25 2.31 4.25 3C4.25 3.39 3.675 4.37 3 5.285C2.325 4.37 1.75 3.39 1.75 3C1.75 2.31 2.31 1.75 3 1.75Z" fill="#A1A1A1"/>
<path id="Vector_2" d="M17 14.75C15.485 14.75 14.25 15.985 14.25 17.5C14.25 18.775 15.915 20.87 16.425 21.48C16.57 21.65 16.78 21.75 17 21.75C17.22 21.75 17.435 21.65 17.575 21.48C18.085 20.87 19.75 18.775 19.75 17.5C19.75 15.985 18.515 14.75 17 14.75ZM17 19.785C16.325 18.87 15.75 17.89 15.75 17.5C15.75 16.81 16.31 16.25 17 16.25C17.69 16.25 18.25 16.81 18.25 17.5C18.25 17.89 17.675 18.87 17 19.785Z" fill="#A1A1A1"/>
<path id="Vector_3" d="M14 20.25H4C2.76 20.25 1.75 19.24 1.75 18C1.75 16.76 2.76 15.75 4 15.75H10C12.07 15.75 13.75 14.07 13.75 12C13.75 9.93 12.07 8.25 10 8.25H4.5C4.085 8.25 3.75 8.585 3.75 9C3.75 9.415 4.085 9.75 4.5 9.75H10C11.24 9.75 12.25 10.76 12.25 12C12.25 13.24 11.24 14.25 10 14.25H4C1.93 14.25 0.25 15.93 0.25 18C0.25 20.07 1.93 21.75 4 21.75H14C14.415 21.75 14.75 21.415 14.75 21C14.75 20.585 14.415 20.25 14 20.25Z" fill="#A1A1A1"/>
</g>
</svg>
