<svg width="20" height="20" viewBox="0 0 20 20" fill="none" xmlns="http://www.w3.org/2000/svg">
<g id="Group">
<path id="Union" fill-rule="evenodd" clip-rule="evenodd" d="M4 1C2.34315 1 1 2.34315 1 4V16C1 17.6569 2.34315 19 4 19H16C17.1046 19 18 18.1046 18 17V15C18.5523 15 19 14.5523 19 14V10C19 9.44771 18.5523 9 18 9V7C18 5.89543 17.1046 5 16 5V3C16 1.89543 15.1046 1 14 1H4ZM16 9V7H4C3.64936 7 3.31278 6.93985 3 6.82929V16C3 16.5523 3.44772 17 4 17H16V15H14C12.3431 15 11 13.6569 11 12C11 10.3431 12.3431 9 14 9H16ZM17 13H14C13.4477 13 13 12.5523 13 12C13 11.4477 13.4477 11 14 11H17V13ZM4 5C3.44772 5 3 4.55228 3 4C3 3.44772 3.44772 3 4 3H14V5H4Z" fill="#A1A1A1" stroke="#FAFAFA" stroke-width="0.6" stroke-linecap="round" stroke-linejoin="round"/>
</g>
</svg>
